<svg width="19" height="24" viewBox="0 0 19 24" fill="none" xmlns="http://www.w3.org/2000/svg">
<path fill-rule="evenodd" clip-rule="evenodd" d="M13.2 13.0386V3C13.2 2.68174 13.0736 2.37652 12.8485 2.15147C12.6235 1.92643 12.3183 1.8 12 1.8C11.6817 1.8 11.3765 1.92643 11.1515 2.15147C10.9264 2.37652 10.8 2.68174 10.8 3V11.4H9.6V1.2C9.6 0.88174 9.47357 0.576515 9.24853 0.351472C9.02348 0.126428 8.71826 0 8.4 0C8.08174 0 7.77652 0.126428 7.55147 0.351472C7.32643 0.576515 7.2 0.88174 7.2 1.2V11.4H6V3C6 2.68174 5.87357 2.37652 5.64853 2.15147C5.42348 1.92643 5.11826 1.8 4.8 1.8C4.48174 1.8 4.17652 1.92643 3.95147 2.15147C3.72643 2.37652 3.6 2.68174 3.6 3V12.6666H2.4V6.6C2.4 6.28174 2.27357 5.97652 2.04853 5.75147C1.82348 5.52643 1.51826 5.4 1.2 5.4C0.88174 5.4 0.576516 5.52643 0.351472 5.75147C0.126428 5.97652 0 6.28174 0 6.6V16.8C0 20.7762 3.2238 24 7.2 24H8.0532C9.35055 24 10.6238 23.6495 11.7384 22.9855C12.8529 22.3215 13.7674 21.3687 14.385 20.2278L18.5478 12.5382C18.7351 12.1924 18.7821 11.7878 18.6792 11.4082C18.5763 11.0287 18.3313 10.7033 17.9949 10.4995C17.6586 10.2957 17.2567 10.2291 16.8726 10.3135C16.4885 10.3979 16.1517 10.6269 15.9318 10.953L14.298 13.374C13.9668 13.8642 13.2006 13.6302 13.2006 13.038L13.2 13.0386ZM5.4138 15.5898C5.49259 15.5897 5.5706 15.5741 5.64336 15.5439C5.71613 15.5137 5.78223 15.4694 5.83789 15.4136C5.89355 15.3579 5.93768 15.2917 5.96776 15.2189C5.99784 15.146 6.01328 15.068 6.0132 14.9892C6.01312 14.9104 5.99752 14.8324 5.9673 14.7596C5.93707 14.6869 5.89281 14.6208 5.83704 14.5651C5.78127 14.5095 5.71508 14.4653 5.64226 14.4352C5.56943 14.4052 5.49139 14.3897 5.4126 14.3898C5.25347 14.39 5.10092 14.4533 4.98851 14.566C4.8761 14.6786 4.81304 14.8313 4.8132 14.9904C4.81336 15.1495 4.87673 15.3021 4.98936 15.4145C5.10199 15.5269 5.25467 15.59 5.4138 15.5898ZM8.4138 16.1874C8.57293 16.1874 8.72554 16.1242 8.83806 16.0117C8.95059 15.8991 9.0138 15.7465 9.0138 15.5874C9.0138 15.4283 8.95059 15.2757 8.83806 15.1631C8.72554 15.0506 8.57293 14.9874 8.4138 14.9874C8.25467 14.9874 8.10206 15.0506 7.98954 15.1631C7.87701 15.2757 7.8138 15.4283 7.8138 15.5874C7.8138 15.7465 7.87701 15.8991 7.98954 16.0117C8.10206 16.1242 8.25467 16.1874 8.4138 16.1874ZM7.2156 17.9886C7.21568 18.0674 7.20024 18.1454 7.17016 18.2183C7.14008 18.2911 7.09595 18.3573 7.04029 18.413C6.98463 18.4688 6.91853 18.5131 6.84576 18.5433C6.773 18.5735 6.69499 18.5891 6.6162 18.5892C6.53741 18.5893 6.45937 18.5738 6.38655 18.5438C6.31372 18.5137 6.24753 18.4695 6.19176 18.4139C6.13599 18.3582 6.09173 18.2921 6.0615 18.2194C6.03128 18.1466 6.01568 18.0686 6.0156 17.9898C6.01544 17.8307 6.0785 17.678 6.19091 17.5654C6.30332 17.4527 6.45587 17.3894 6.615 17.3892C6.77413 17.389 6.92681 17.4521 7.03944 17.5645C7.15207 17.6769 7.21544 17.8295 7.2156 17.9886ZM9.6156 17.9868C9.69439 17.9868 9.77241 17.9712 9.84519 17.941C9.91797 17.9108 9.98409 17.8666 10.0398 17.8109C10.0955 17.7551 10.1396 17.6889 10.1697 17.6161C10.1999 17.5433 10.2153 17.4653 10.2153 17.3865C10.2153 17.3077 10.1997 17.2297 10.1695 17.1569C10.1393 17.0841 10.0951 17.018 10.0394 16.9623C9.98361 16.9066 9.91744 16.8625 9.84463 16.8324C9.77182 16.8022 9.69379 16.7868 9.615 16.7868C9.45587 16.7869 9.30329 16.8502 9.19082 16.9627C9.07836 17.0753 9.01522 17.228 9.0153 17.3871C9.01538 17.5462 9.07867 17.6988 9.19125 17.8113C9.30383 17.9237 9.45647 17.9869 9.6156 17.9868ZM11.4174 19.785C11.4175 19.8638 11.402 19.9418 11.372 20.0147C11.3419 20.0875 11.2977 20.1537 11.2421 20.2094C11.1864 20.2652 11.1203 20.3095 11.0476 20.3397C10.9748 20.3699 10.8968 20.3855 10.818 20.3856C10.7392 20.3857 10.6612 20.3702 10.5883 20.3402C10.5155 20.3101 10.4493 20.2659 10.3936 20.2103C10.3378 20.1546 10.2935 20.0885 10.2633 20.0158C10.2331 19.943 10.2175 19.865 10.2174 19.7862C10.2172 19.6271 10.2803 19.4744 10.3927 19.3618C10.5051 19.2491 10.6577 19.1858 10.8168 19.1856C10.9759 19.1854 11.1286 19.2485 11.2412 19.3609C11.3539 19.4733 11.4172 19.6259 11.4174 19.785ZM12.015 17.385C12.0938 17.385 12.1718 17.3694 12.2446 17.3392C12.3174 17.309 12.3835 17.2648 12.4392 17.2091C12.4949 17.1533 12.539 17.0871 12.5691 17.0143C12.5993 16.9415 12.6147 16.8635 12.6147 16.7847C12.6147 16.7059 12.5991 16.6279 12.5689 16.5551C12.5387 16.4823 12.4945 16.4162 12.4388 16.3605C12.383 16.3048 12.3168 16.2607 12.244 16.2306C12.1712 16.2004 12.0932 16.185 12.0144 16.185C11.8553 16.1851 11.7027 16.2484 11.5902 16.3609C11.4778 16.4735 11.4146 16.6262 11.4147 16.7853C11.4148 16.9444 11.4781 17.097 11.5906 17.2095C11.7032 17.3219 11.8559 17.3851 12.015 17.385ZM8.4174 20.3874C8.41748 20.4662 8.40204 20.5442 8.37196 20.6171C8.34188 20.6899 8.29775 20.7561 8.24209 20.8118C8.18643 20.8676 8.12033 20.9119 8.04756 20.9421C7.9748 20.9723 7.89679 20.9879 7.818 20.988C7.73921 20.9881 7.66117 20.9726 7.58834 20.9426C7.51552 20.9125 7.44933 20.8683 7.39356 20.8127C7.33779 20.757 7.29353 20.6909 7.2633 20.6182C7.23308 20.5454 7.21748 20.4674 7.2174 20.3886C7.21724 20.2295 7.2803 20.0768 7.39271 19.9642C7.50512 19.8515 7.65767 19.7882 7.8168 19.788C7.97593 19.7878 8.12861 19.8509 8.24124 19.9633C8.35387 20.0757 8.41724 20.2283 8.4174 20.3874ZM4.8174 20.3904C4.97653 20.3903 5.12911 20.327 5.24158 20.2145C5.35404 20.1019 5.41718 19.9492 5.4171 19.7901C5.41702 19.631 5.35373 19.4784 5.24115 19.3659C5.12857 19.2535 4.97593 19.1903 4.8168 19.1904C4.65767 19.1905 4.50509 19.2538 4.39262 19.3664C4.28016 19.4789 4.21702 19.6316 4.2171 19.7907C4.21718 19.9498 4.28047 20.1024 4.39305 20.2149C4.50563 20.3273 4.65827 20.3905 4.8174 20.3904ZM4.215 17.391C4.21508 17.4698 4.19964 17.5478 4.16956 17.6207C4.13948 17.6935 4.09535 17.7597 4.03969 17.8154C3.98403 17.8712 3.91793 17.9155 3.84516 17.9457C3.7724 17.9759 3.69439 17.9915 3.6156 17.9916C3.53681 17.9917 3.45877 17.9762 3.38594 17.9462C3.31312 17.9161 3.24693 17.8719 3.19116 17.8163C3.13539 17.7606 3.09113 17.6945 3.0609 17.6218C3.03068 17.549 3.01508 17.471 3.015 17.3922C3.01484 17.2331 3.0779 17.0804 3.19031 16.9678C3.30272 16.8551 3.45527 16.7918 3.6144 16.7916C3.77353 16.7914 3.92621 16.8545 4.03884 16.9669C4.15147 17.0793 4.21484 17.2319 4.215 17.391Z" fill="#000000"/>
</svg>
