<svg width="23" height="16" viewBox="0 0 23 16" fill="none" xmlns="http://www.w3.org/2000/svg">
<path fill-rule="evenodd" clip-rule="evenodd" d="M21.9163 0.492899C22.2315 0.808239 22.4086 1.23587 22.4086 1.68176C22.4086 2.12765 22.2315 2.55529 21.9163 2.87063L9.31242 15.4745C9.14586 15.6411 8.94811 15.7733 8.73046 15.8634C8.51282 15.9536 8.27954 16 8.04396 16C7.80838 16 7.5751 15.9536 7.35746 15.8634C7.13981 15.7733 6.94206 15.6411 6.7755 15.4745L0.513361 9.21348C0.352755 9.05836 0.22465 8.87281 0.136521 8.66765C0.0483918 8.4625 0.0020037 8.24184 6.34901e-05 8.01857C-0.00187672 7.79529 0.0406699 7.57386 0.12522 7.3672C0.209771 7.16055 0.334632 6.9728 0.492519 6.81491C0.650405 6.65702 0.838154 6.53216 1.04481 6.44761C1.25147 6.36306 1.4729 6.32052 1.69617 6.32246C1.91945 6.3244 2.14011 6.37078 2.34526 6.45891C2.55042 6.54704 2.73597 6.67515 2.89109 6.83575L8.0434 11.9881L19.5374 0.492899C19.6936 0.336638 19.879 0.212678 20.0831 0.128104C20.2872 0.0435305 20.506 0 20.7269 0C20.9478 0 21.1665 0.0435305 21.3706 0.128104C21.5747 0.212678 21.7601 0.336638 21.9163 0.492899Z" fill="#000000"/>
</svg>
