<svg width="7" height="12" viewBox="0 0 7 12" fill="none" xmlns="http://www.w3.org/2000/svg">
<path d="M0.687992 0.240109C0.601311 0.320471 0.531311 0.417121 0.481986 0.524539C0.432662 0.631957 0.404982 0.748039 0.400524 0.866157C0.396067 0.984274 0.41492 1.10211 0.456009 1.21294C0.497097 1.32377 0.559615 1.42542 0.639993 1.51209L4.87232 6.00002L0.639992 10.4879C0.559624 10.5746 0.497115 10.6763 0.456032 10.7871C0.41495 10.8979 0.396099 11.0158 0.400556 11.1339C0.405013 11.252 0.432691 11.3681 0.482009 11.4755C0.531327 11.5829 0.60132 11.6796 0.687991 11.7599C0.774662 11.8403 0.876314 11.9028 0.987143 11.9439C1.09797 11.985 1.21581 12.0038 1.33392 11.9994C1.45204 11.9949 1.56812 11.9672 1.67553 11.9179C1.78295 11.8686 1.8796 11.7986 1.95997 11.7119L6.75989 6.61201C6.91424 6.44559 7 6.22699 7 6.00002C7 5.77304 6.91424 5.55445 6.75989 5.38803L1.95997 0.288108C1.87961 0.201428 1.78296 0.131427 1.67554 0.0821025C1.56812 0.0327783 1.45204 0.00509714 1.33392 0.000639886C1.21581 -0.00381737 1.09797 0.0150366 0.987139 0.0561251C0.876309 0.0972135 0.774658 0.159732 0.687992 0.240109Z" fill="#000000"/>
</svg>
