<svg width="24" height="24" viewBox="0 0 24 24" fill="none" xmlns="http://www.w3.org/2000/svg">
<path d="M5.20457 2.24536L16.5377 7.10193L12 9.04593L0.732 4.21679C0.985714 3.95793 1.296 3.74879 1.64914 3.61336L5.20457 2.24536ZM7.49828 1.36422L10.1554 0.342506C11.3433 -0.114169 12.6584 -0.114169 13.8463 0.342506L22.3526 3.61336C22.704 3.7505 23.0143 3.95622 23.268 4.21679L18.7148 6.16764L7.49828 1.36422ZM23.9897 5.77336L12.8571 10.5442V23.3156C13.1951 23.2586 13.5264 23.1679 13.8463 23.0448L22.3526 19.7722C22.8375 19.5855 23.2545 19.2562 23.5486 18.8278C23.8427 18.3993 24 17.8919 24 17.3722V6.01336C24.0003 5.9332 23.9963 5.85308 23.988 5.77336H23.9897ZM11.1428 23.3156V10.5442L0.0119999 5.77336C0.00427451 5.85313 0.000270228 5.93322 0 6.01336V17.3722C6.88157e-05 17.8921 0.157701 18.3997 0.45211 18.8281C0.746518 19.2566 1.16388 19.5858 1.64914 19.7722L10.1537 23.0448C10.476 23.1682 10.8068 23.2591 11.1428 23.3156Z" fill="#000000"/>
</svg>
