<svg width="52" height="64" viewBox="0 0 52 64" fill="none" xmlns="http://www.w3.org/2000/svg">
<path fill-rule="evenodd" clip-rule="evenodd" d="M50.5356 20.1376C50.8001 20.4104 51.0136 20.7279 51.1662 21.0752C51.2061 21.1603 51.2334 21.2479 51.2615 21.338L51.2723 21.3728C51.3655 21.6401 51.4207 21.9191 51.4364 22.2016C51.4394 22.234 51.4485 22.2644 51.4575 22.2943C51.4679 22.3294 51.4783 22.3637 51.4783 22.4V57.6C51.4783 61.1296 48.5923 64 45.0435 64H6.43478C2.886 64 0 61.1296 0 57.6V6.40001C0 2.87039 2.886 0 6.43478 0H28.9565C28.9935 0 29.0285 0.0105299 29.0638 0.0211235C29.0929 0.0298913 29.1222 0.0387016 29.1528 0.0416101C29.4366 0.058806 29.7169 0.113685 29.9861 0.204802C30.0181 0.215757 30.0502 0.225798 30.0821 0.235776C30.1526 0.257813 30.2221 0.279552 30.2885 0.310398C30.6377 0.462126 30.9569 0.674507 31.2312 0.937606L50.5356 20.1376ZM32.1739 19.2H40.4941L32.1739 10.9248V19.2ZM6.43478 6.40001V57.6H45.0499L45.0435 25.6H28.9565C28.1032 25.6 27.2849 25.2629 26.6815 24.6627C26.0781 24.0626 25.7391 23.2487 25.7391 22.4V6.40001H6.43478ZM38.9565 32.2783H13.2174V38.6783H38.9565V32.2783ZM38.9565 45.0783H13.2174V51.4783H38.9565V45.0783ZM19.6522 19.4783H13.2174V25.8783H19.6522V19.4783Z" fill="#000000"/>
</svg>
