<?xml version="1.0" encoding="UTF-8"?>
<svg id="Layer_1" data-name="Layer 1" xmlns="http://www.w3.org/2000/svg" viewBox="0 0 600 337.38">
  <defs>
    <style>
      .cls-1 {
        fill: #a1586a;
      }

      .cls-2 {
        fill: #ffb753;
      }

      .cls-3 {
        fill: #742136;
      }

      .cls-4 {
        fill: #689361;
      }

      .cls-5 {
        fill: #486c44;
      }

      .cls-6 {
        fill: #ffa629;
      }
    </style>
  </defs>
  <polygon class="cls-6" points=".3 131.6 .3 -.07 24.99 -.07 66.13 57.54 107.27 -.07 131.96 -.07 131.96 131.6 107.27 131.6 107.27 41.08 74.36 90.45 57.9 90.45 24.99 41.08 24.99 131.6 .3 131.6"/>
  <polygon class="cls-2" points="263.62 -.07 263.62 65.77 181.33 65.77 181.33 -.07 156.65 -.07 156.65 90.45 206.02 90.45 206.02 131.6 238.94 131.6 238.94 90.45 288.31 90.45 288.31 -.07 263.62 -.07"/>
  <polygon class="cls-5" points="131.96 156.28 .3 156.28 .3 287.94 131.96 287.94 131.96 222.11 66.13 222.11 66.13 246.8 107.27 246.8 107.27 263.26 24.99 263.26 24.99 180.97 131.96 180.97 131.96 156.28"/>
  <path class="cls-4" d="m156.65,156.28v131.66h131.66v-131.66h-131.66Zm106.97,106.97h-82.29v-82.29h82.29v82.29Z"/>
  <path class="cls-1" d="m468.64,156.28v131.66h131.66v-131.66h-131.66Zm106.97,106.97h-82.29v-82.29h82.29v82.29Z"/>
  <polygon class="cls-3" points="312.29 156.28 443.95 156.28 443.95 180.97 394.58 180.97 394.58 287.94 361.66 287.94 361.66 180.97 312.29 180.97 312.29 156.28"/>
  <polygon class="cls-4" points="156.65 312.63 156.65 337.32 181.33 337.32 263.62 337.32 288.31 337.32 288.31 312.63 156.65 312.63"/>
  <polygon class="cls-1" points="468.64 312.63 468.64 337.32 493.32 337.32 575.61 337.32 600.3 337.32 600.3 312.63 468.64 312.63"/>
</svg>