<svg width="26" height="32" viewBox="0 0 26 32" fill="none" xmlns="http://www.w3.org/2000/svg">
<path d="M12.8 0C11.1026 0 9.47475 0.674284 8.27452 1.87452C7.07428 3.07475 6.4 4.70261 6.4 6.4C6.4 8.09739 7.07428 9.72525 8.27452 10.9255C9.47475 12.1257 11.1026 12.8 12.8 12.8C14.4974 12.8 16.1252 12.1257 17.3255 10.9255C18.5257 9.72525 19.2 8.09739 19.2 6.4C19.2 4.70261 18.5257 3.07475 17.3255 1.87452C16.1252 0.674284 14.4974 0 12.8 0ZM9.6 6.4C9.6 5.55131 9.93714 4.73737 10.5373 4.13726C11.1374 3.53714 11.9513 3.2 12.8 3.2C13.6487 3.2 14.4626 3.53714 15.0627 4.13726C15.6629 4.73737 16 5.55131 16 6.4C16 7.24869 15.6629 8.06263 15.0627 8.66274C14.4626 9.26286 13.6487 9.6 12.8 9.6C11.9513 9.6 11.1374 9.26286 10.5373 8.66274C9.93714 8.06263 9.6 7.24869 9.6 6.4ZM20.8 16H4.8C3.52696 16 2.30606 16.5057 1.40589 17.4059C0.505713 18.3061 0 19.527 0 20.8C0 24.3712 1.4688 27.232 3.8784 29.168C6.2496 31.072 9.4304 32 12.8 32C16.1696 32 19.3504 31.072 21.7216 29.168C24.128 27.232 25.6 24.3712 25.6 20.8C25.6 19.527 25.0943 18.3061 24.1941 17.4059C23.2939 16.5057 22.073 16 20.8 16ZM4.8 19.2H20.8C21.2243 19.2 21.6313 19.3686 21.9314 19.6686C22.2314 19.9687 22.4 20.3757 22.4 20.8C22.4 23.4144 21.36 25.3536 19.7184 26.672C18.0352 28.0224 15.616 28.8 12.8 28.8C9.984 28.8 7.5648 28.0224 5.8816 26.672C4.24 25.3536 3.2 23.4144 3.2 20.8C3.2 20.3757 3.36857 19.9687 3.66863 19.6686C3.96869 19.3686 4.37565 19.2 4.8 19.2Z" fill="#000000"/>
</svg>
