<svg width="60" height="60" viewBox="0 0 60 60" fill="none" xmlns="http://www.w3.org/2000/svg">
<path fill-rule="evenodd" clip-rule="evenodd" d="M23.8571 6.63206C19.1315 6.63206 14.5996 8.48055 11.2582 11.7709C7.91672 15.0612 6.03952 19.5239 6.03952 24.1772C6.03952 26.4812 6.50038 28.7627 7.3958 30.8914C8.29121 33.02 9.60364 34.9542 11.2582 36.5834C12.9127 38.2126 14.8769 39.505 17.0386 40.3867C19.2003 41.2684 21.5172 41.7222 23.8571 41.7222C26.1969 41.7222 28.5138 41.2684 30.6755 40.3867C32.8372 39.505 34.8014 38.2126 36.4559 36.5834C38.1105 34.9542 39.4229 33.02 40.3183 30.8914C41.2137 28.7627 41.6746 26.4812 41.6746 24.1772C41.6746 19.5239 39.7974 15.0612 36.4559 11.7709C33.1145 8.48055 28.5826 6.63206 23.8571 6.63206ZM7.05852 7.63548C11.5138 3.24835 17.5564 0.783691 23.8571 0.783691C30.1577 0.783691 36.2003 3.24835 40.6556 7.63548C45.1108 12.0226 47.6138 17.9728 47.6138 24.1772C47.6138 27.2492 46.9993 30.2912 45.8054 33.1294C44.9922 35.0626 43.9211 36.8754 42.6236 38.5214L58.6223 54.2754C59.782 55.4174 59.782 57.2689 58.6223 58.4109C57.4626 59.5528 55.5824 59.5528 54.4227 58.4109L38.424 42.6568C36.7525 43.9344 34.9115 44.9892 32.9484 45.7899C30.0661 46.9655 26.9768 47.5706 23.8571 47.5706C20.7373 47.5706 17.6481 46.9655 14.7658 45.7899C11.8835 44.6143 9.26453 42.8911 7.05852 40.7188C4.85251 38.5465 3.1026 35.9677 1.90871 33.1294C0.714828 30.2912 0.100342 27.2492 0.100342 24.1772C0.100342 17.9728 2.60327 12.0226 7.05852 7.63548Z" fill="#000000"/>
</svg>
