<svg width="55" height="61" viewBox="0 0 55 61" fill="none" xmlns="http://www.w3.org/2000/svg">
<path d="M50.9716 11.6029H41.2529V8.3634C41.2529 6.35864 40.4566 4.43599 39.039 3.01841C37.6214 1.60083 35.6988 0.804443 33.694 0.804443H20.7358C18.731 0.804443 16.8084 1.60083 15.3908 3.01841C13.9732 4.43599 13.1768 6.35864 13.1768 8.3634V11.6029H3.45818C2.599 11.6029 1.775 11.9443 1.16747 12.5518C0.559937 13.1593 0.218628 13.9833 0.218628 14.8425C0.218628 15.7017 0.559937 16.5257 1.16747 17.1332C1.775 17.7407 2.599 18.0821 3.45818 18.0821H4.53803V54.797C4.53803 56.2289 5.10688 57.6023 6.11943 58.6148C7.13199 59.6274 8.50531 60.1962 9.93728 60.1962H44.4925C45.9245 60.1962 47.2978 59.6274 48.3103 58.6148C49.3229 57.6023 49.8918 56.2289 49.8918 54.797V18.0821H50.9716C51.8308 18.0821 52.6548 17.7407 53.2623 17.1332C53.8698 16.5257 54.2112 15.7017 54.2112 14.8425C54.2112 13.9833 53.8698 13.1593 53.2623 12.5518C52.6548 11.9443 51.8308 11.6029 50.9716 11.6029ZM19.6559 8.3634C19.6559 8.077 19.7697 7.80234 19.9722 7.59983C20.1747 7.39732 20.4494 7.28355 20.7358 7.28355H33.694C33.9804 7.28355 34.2551 7.39732 34.4576 7.59983C34.6601 7.80234 34.7738 8.077 34.7738 8.3634V11.6029H19.6559V8.3634ZM43.4126 53.7171H11.0171V18.0821H43.4126V53.7171ZM23.9753 26.7209V43.9985C23.9753 44.8576 23.634 45.6816 23.0265 46.2892C22.419 46.8967 21.595 47.238 20.7358 47.238C19.8766 47.238 19.0526 46.8967 18.4451 46.2892C17.8375 45.6816 17.4962 44.8576 17.4962 43.9985V26.7209C17.4962 25.8617 17.8375 25.0377 18.4451 24.4301C19.0526 23.8226 19.8766 23.4813 20.7358 23.4813C21.595 23.4813 22.419 23.8226 23.0265 24.4301C23.634 25.0377 23.9753 25.8617 23.9753 26.7209ZM36.9335 26.7209V43.9985C36.9335 44.8576 36.5922 45.6816 35.9847 46.2892C35.3772 46.8967 34.5532 47.238 33.694 47.238C32.8348 47.238 32.0108 46.8967 31.4033 46.2892C30.7958 45.6816 30.4544 44.8576 30.4544 43.9985V26.7209C30.4544 25.8617 30.7958 25.0377 31.4033 24.4301C32.0108 23.8226 32.8348 23.4813 33.694 23.4813C34.5532 23.4813 35.3772 23.8226 35.9847 24.4301C36.5922 25.0377 36.9335 25.8617 36.9335 26.7209Z" fill="#000000"/>
</svg>
