<svg width="24" height="17" viewBox="0 0 24 17" fill="none" xmlns="http://www.w3.org/2000/svg">
<path d="M23.943 6.1L22.543 2.6C22.4242 2.30371 22.2191 2.04996 21.9543 1.87165C21.6895 1.69334 21.3772 1.5987 21.058 1.6H17.6V0.8C17.6 0.587827 17.5157 0.384344 17.3657 0.234315C17.2157 0.0842856 17.0122 0 16.8 0H1.6C1.17565 0 0.768687 0.168571 0.468629 0.468629C0.168571 0.768687 0 1.17565 0 1.6V12.8C0 13.2243 0.168571 13.6313 0.468629 13.9314C0.768687 14.2314 1.17565 14.4 1.6 14.4H3.3C3.47624 15.0883 3.87656 15.6984 4.43785 16.1341C4.99914 16.5698 5.68946 16.8063 6.4 16.8063C7.11054 16.8063 7.80086 16.5698 8.36215 16.1341C8.92344 15.6984 9.32376 15.0883 9.5 14.4H14.5C14.6762 15.0883 15.0766 15.6984 15.6378 16.1341C16.1991 16.5698 16.8895 16.8063 17.6 16.8063C18.3105 16.8063 19.0009 16.5698 19.5622 16.1341C20.1234 15.6984 20.5238 15.0883 20.7 14.4H22.4C22.8243 14.4 23.2313 14.2314 23.5314 13.9314C23.8314 13.6313 24 13.2243 24 12.8V6.4C24.0001 6.2973 23.9808 6.1955 23.943 6.1ZM6.4 15.2C6.08355 15.2 5.77421 15.1062 5.51109 14.9304C5.24797 14.7545 5.04289 14.5047 4.92179 14.2123C4.80069 13.9199 4.76901 13.5982 4.83074 13.2879C4.89248 12.9775 5.04487 12.6924 5.26863 12.4686C5.49239 12.2449 5.77749 12.0925 6.08786 12.0307C6.39823 11.969 6.71993 12.0007 7.01229 12.1218C7.30466 12.2429 7.55454 12.448 7.73035 12.7111C7.90616 12.9742 8 13.2836 8 13.6C8 14.0243 7.83143 14.4313 7.53137 14.7314C7.23131 15.0314 6.82435 15.2 6.4 15.2ZM1.6 8V1.6H16V8H1.6ZM17.6 15.2C17.2836 15.2 16.9742 15.1062 16.7111 14.9304C16.448 14.7545 16.2429 14.5047 16.1218 14.2123C16.0007 13.9199 15.969 13.5982 16.0307 13.2879C16.0925 12.9775 16.2449 12.6924 16.4686 12.4686C16.6924 12.2449 16.9775 12.0925 17.2879 12.0307C17.5982 11.969 17.9199 12.0007 18.2123 12.1218C18.5047 12.2429 18.7545 12.448 18.9304 12.7111C19.1062 12.9742 19.2 13.2836 19.2 13.6C19.2 14.0243 19.0314 14.4313 18.7314 14.7314C18.4313 15.0314 18.0243 15.2 17.6 15.2ZM17.6 5.6V3.2H21.058L22.018 5.6H17.6Z" fill="#000000"/>
</svg>
