<svg width="32" height="47" viewBox="0 0 32 47" fill="none" xmlns="http://www.w3.org/2000/svg">
<mask id="path-1-inside-1_130_38" fill="white">
<path fill-rule="evenodd" clip-rule="evenodd" d="M29 2C29.5178 2 29.9436 2.3935 29.9948 2.89776C29.9983 2.93137 30 2.96548 30 3V34C30 34.5523 29.5523 35 29 35H3C2.44772 35 2 34.5523 2 34V3C2 2.44772 2.44772 2 3 2H29ZM0 35V34V3C0 1.34315 1.34315 0 3 0H29C30.4497 0 31.6593 1.02835 31.9391 2.3954C31.979 2.59069 32 2.79289 32 3V34V35V44C32 45.6569 30.6569 47 29 47H3C1.34315 47 0 45.6569 0 44V35ZM19 5C18.4477 5 18 5.44771 18 6V16C18 16.5523 18.4477 17 19 17H26C26.5523 17 27 16.5523 27 16V6C27 5.44772 26.5523 5 26 5H19ZM5 21C5 20.4477 5.44772 20 6 20H13C13.5523 20 14 20.4477 14 21V31C14 31.5523 13.5523 32 13 32H6C5.44772 32 5 31.5523 5 31V21ZM18 21C18 20.4477 18.4477 20 19 20H26C26.5523 20 27 20.4477 27 21V31C27 31.5523 26.5523 32 26 32H19C18.4477 32 18 31.5523 18 31V21ZM5 6C5 5.44771 5.44772 5 6 5H13C13.5523 5 14 5.44772 14 6V16C14 16.5523 13.5523 17 13 17H6C5.44772 17 5 16.5523 5 16V6Z"/>
</mask>
<path fill-rule="evenodd" clip-rule="evenodd" d="M29 2C29.5178 2 29.9436 2.3935 29.9948 2.89776C29.9983 2.93137 30 2.96548 30 3V34C30 34.5523 29.5523 35 29 35H3C2.44772 35 2 34.5523 2 34V3C2 2.44772 2.44772 2 3 2H29ZM0 35V34V3C0 1.34315 1.34315 0 3 0H29C30.4497 0 31.6593 1.02835 31.9391 2.3954C31.979 2.59069 32 2.79289 32 3V34V35V44C32 45.6569 30.6569 47 29 47H3C1.34315 47 0 45.6569 0 44V35ZM19 5C18.4477 5 18 5.44771 18 6V16C18 16.5523 18.4477 17 19 17H26C26.5523 17 27 16.5523 27 16V6C27 5.44772 26.5523 5 26 5H19ZM5 21C5 20.4477 5.44772 20 6 20H13C13.5523 20 14 20.4477 14 21V31C14 31.5523 13.5523 32 13 32H6C5.44772 32 5 31.5523 5 31V21ZM18 21C18 20.4477 18.4477 20 19 20H26C26.5523 20 27 20.4477 27 21V31C27 31.5523 26.5523 32 26 32H19C18.4477 32 18 31.5523 18 31V21ZM5 6C5 5.44771 5.44772 5 6 5H13C13.5523 5 14 5.44772 14 6V16C14 16.5523 13.5523 17 13 17H6C5.44772 17 5 16.5523 5 16V6Z" fill="black"/>
<path d="M29.9948 2.89776L28.0051 3.09983L28.0051 3.09984L29.9948 2.89776ZM31.9391 2.3954L29.9797 2.79635L29.9797 2.79635L31.9391 2.3954ZM31.9846 2.69568C31.8308 1.18078 30.5545 0 29 0V4C28.481 4 28.0565 3.60622 28.0051 3.09983L31.9846 2.69568ZM32 3C32 2.89788 31.9948 2.79632 31.9846 2.69567L28.0051 3.09984C28.0017 3.06642 28 3.03309 28 3H32ZM32 34V3H28V34H32ZM29 37C30.6569 37 32 35.6569 32 34H28C28 33.4477 28.4477 33 29 33V37ZM3 37H29V33H3V37ZM0 34C0 35.6569 1.34315 37 3 37V33C3.55229 33 4 33.4477 4 34H0ZM0 3V34H4V3H0ZM3 0C1.34315 0 0 1.34315 0 3H4C4 3.55229 3.55228 4 3 4V0ZM29 0H3V4H29V0ZM2 35V34H-2V35H2ZM2 34V3H-2V34H2ZM2 3C2 2.44772 2.44771 2 3 2V-2C0.238577 -2 -2 0.238576 -2 3H2ZM3 2H29V-2H3V2ZM29 2C29.4809 2 29.8866 2.34147 29.9797 2.79635L33.8984 1.99444C33.4321 -0.284776 31.4186 -2 29 -2V2ZM29.9797 2.79635C29.9928 2.86045 30 2.92834 30 3H34C34 2.65745 33.9653 2.32093 33.8984 1.99444L29.9797 2.79635ZM30 3V34H34V3H30ZM30 34V35H34V34H30ZM30 35V44H34V35H30ZM30 44C30 44.5523 29.5523 45 29 45V49C31.7614 49 34 46.7614 34 44H30ZM29 45H3V49H29V45ZM3 45C2.44772 45 2 44.5523 2 44H-2C-2 46.7614 0.238576 49 3 49V45ZM2 44V35H-2V44H2ZM20 6C20 6.55229 19.5523 7 19 7V3C17.3431 3 16 4.34314 16 6H20ZM20 16V6H16V16H20ZM19 15C19.5523 15 20 15.4477 20 16H16C16 17.6569 17.3431 19 19 19V15ZM26 15H19V19H26V15ZM25 16C25 15.4477 25.4477 15 26 15V19C27.6569 19 29 17.6569 29 16H25ZM25 6V16H29V6H25ZM26 7C25.4477 7 25 6.55229 25 6H29C29 4.34315 27.6569 3 26 3V7ZM19 7H26V3H19V7ZM6 18C4.34315 18 3 19.3431 3 21H7C7 21.5523 6.55229 22 6 22V18ZM13 18H6V22H13V18ZM16 21C16 19.3431 14.6569 18 13 18V22C12.4477 22 12 21.5523 12 21H16ZM16 31V21H12V31H16ZM13 34C14.6569 34 16 32.6569 16 31H12C12 30.4477 12.4477 30 13 30V34ZM6 34H13V30H6V34ZM3 31C3 32.6569 4.34315 34 6 34V30C6.55229 30 7 30.4477 7 31H3ZM3 21V31H7V21H3ZM19 18C17.3431 18 16 19.3431 16 21H20C20 21.5523 19.5523 22 19 22V18ZM26 18H19V22H26V18ZM29 21C29 19.3431 27.6569 18 26 18V22C25.4477 22 25 21.5523 25 21H29ZM29 31V21H25V31H29ZM26 34C27.6569 34 29 32.6569 29 31H25C25 30.4477 25.4477 30 26 30V34ZM19 34H26V30H19V34ZM16 31C16 32.6569 17.3431 34 19 34V30C19.5523 30 20 30.4477 20 31H16ZM16 21V31H20V21H16ZM6 3C4.34315 3 3 4.34314 3 6H7C7 6.55228 6.55228 7 6 7V3ZM13 3H6V7H13V3ZM16 6C16 4.34315 14.6569 3 13 3V7C12.4477 7 12 6.55228 12 6H16ZM16 16V6H12V16H16ZM13 19C14.6569 19 16 17.6569 16 16H12C12 15.4477 12.4477 15 13 15V19ZM6 19H13V15H6V19ZM3 16C3 17.6569 4.34315 19 6 19V15C6.55229 15 7 15.4477 7 16H3ZM3 6V16H7V6H3Z" fill="black" mask="url(#path-1-inside-1_130_38)"/>
</svg>
