<svg width="32" height="47" viewBox="0 0 32 47" fill="none" xmlns="http://www.w3.org/2000/svg">
<path fill-rule="evenodd" clip-rule="evenodd" d="M3 2H29C29.5527 2 30 2.44775 30 3V35H2V3C2 2.89331 2.0166 2.79028 2.04785 2.69385C2.09277 2.55444 2.16797 2.42847 2.26465 2.32324C2.44727 2.12451 2.70898 2 3 2ZM0 35V3C0 1.34326 1.34277 0 3 0H29C30.6572 0 32 1.34326 32 3V35V44C32 45.6567 30.6572 47 29 47H3C1.34277 47 0 45.6567 0 44V35ZM5 20H14V32H5V20ZM14 5H5V17H14V5ZM18 20H27V32H18V20ZM27 5H18V17H27V5Z" fill="#000000"/>
</svg>
