<svg width="16" height="24" viewBox="0 0 16 24" fill="none" xmlns="http://www.w3.org/2000/svg">
<path fill-rule="evenodd" clip-rule="evenodd" d="M2 0.923077H14C14.5523 0.923077 15 1.33635 15 1.84615V18.4615H1V1.84615C1 1.33635 1.44772 0.923077 2 0.923077ZM0 18.4615V1.84615C0 0.826551 0.895431 0 2 0H14C15.1046 0 16 0.826551 16 1.84615V18.4615V19.3846V22.1538C16 23.1735 15.1046 24 14 24L2 24C0.895431 24 0 23.1734 0 22.1538V19.3846V18.4615ZM2 3.23077C2 2.46607 2.67157 1.84615 3.5 1.84615H6C6.82843 1.84615 7.5 2.46607 7.5 3.23077V5.07692C7.5 5.84162 6.82843 6.46154 6 6.46154H3.5C2.67157 6.46154 2 5.84162 2 5.07692V3.23077ZM3.5 8.30769H6C6.27614 8.30769 6.5 8.51433 6.5 8.76923V10.6154C6.5 10.8703 6.27614 11.0769 6 11.0769H3.5C3.22386 11.0769 3 10.8703 3 10.6154V8.76923C3 8.51433 3.22386 8.30769 3.5 8.30769ZM2 8.76923C2 8.00453 2.67157 7.38462 3.5 7.38462H6C6.82843 7.38462 7.5 8.00453 7.5 8.76923V10.6154C7.5 11.3801 6.82843 12 6 12H3.5C2.67157 12 2 11.3801 2 10.6154V8.76923ZM6 13.8462H3.5C3.22386 13.8462 3 14.0528 3 14.3077V16.1538C3 16.4087 3.22386 16.6154 3.5 16.6154H6C6.27614 16.6154 6.5 16.4087 6.5 16.1538V14.3077C6.5 14.0528 6.27614 13.8462 6 13.8462ZM3.5 12.9231C2.67157 12.9231 2 13.543 2 14.3077V16.1538C2 16.9185 2.67157 17.5385 3.5 17.5385H6C6.82843 17.5385 7.5 16.9185 7.5 16.1538V14.3077C7.5 13.543 6.82843 12.9231 6 12.9231H3.5ZM10 2.76923H12.5C12.7761 2.76923 13 2.97587 13 3.23077V5.07692C13 5.33182 12.7761 5.53846 12.5 5.53846H10C9.72386 5.53846 9.5 5.33182 9.5 5.07692V3.23077C9.5 2.97587 9.72386 2.76923 10 2.76923ZM8.5 3.23077C8.5 2.46607 9.17157 1.84615 10 1.84615H12.5C13.3284 1.84615 14 2.46607 14 3.23077V5.07692C14 5.84162 13.3284 6.46154 12.5 6.46154H10C9.17157 6.46154 8.5 5.84162 8.5 5.07692V3.23077ZM8.5 8.76923C8.5 8.00453 9.17157 7.38462 10 7.38462H12.5C13.3284 7.38462 14 8.00453 14 8.76923V10.6154C14 11.3801 13.3284 12 12.5 12H10C9.17157 12 8.5 11.3801 8.5 10.6154V8.76923ZM10 12.9231C9.17157 12.9231 8.5 13.543 8.5 14.3077V16.1538C8.5 16.9185 9.17157 17.5385 10 17.5385H12.5C13.3284 17.5385 14 16.9185 14 16.1538V14.3077C14 13.543 13.3284 12.9231 12.5 12.9231H10Z" fill="#000000"/>
</svg>
