<svg width="17" height="24" viewBox="0 0 17 24" fill="none" xmlns="http://www.w3.org/2000/svg">
<path fill-rule="evenodd" clip-rule="evenodd" d="M1.59375 1H15.4062C15.6997 1 15.9375 1.22386 15.9375 1.5V18H1.0625V1.5C1.0625 1.22386 1.30035 1 1.59375 1ZM0 18V1.5C0 0.671573 0.713546 0 1.59375 0H15.4062C16.2865 0 17 0.671573 17 1.5V18V22.5C17 23.3284 16.2865 24 15.4062 24H1.59375C0.713546 24 0 23.3284 0 22.5V18ZM2.125 10H7.96875V17H2.125V10ZM7.96875 2H2.125V9H7.96875V2ZM9.03125 10H14.875V17H9.03125V10ZM14.875 2H9.03125V9H14.875V2Z" fill="#000000"/>
</svg>
