<svg width="24" height="20" viewBox="0 0 24 20" fill="none" xmlns="http://www.w3.org/2000/svg">
<path d="M18.9 13.1991H5.115C4.95 13.1991 4.815 13.3341 4.815 13.4991L4.81125 15.2991C4.81125 15.4641 4.94625 15.5991 5.11125 15.5991H18.9C19.065 15.5991 19.2 15.4641 19.2 15.2991V13.4991C19.2 13.3341 19.065 13.1991 18.9 13.1991ZM18.9 16.7991H5.10375C4.93875 16.7991 4.80375 16.9341 4.80375 17.0991L4.8 18.8991C4.8 19.0641 4.935 19.1991 5.1 19.1991H18.9C19.065 19.1991 19.2 19.0641 19.2 18.8991V17.0991C19.2 16.9341 19.065 16.7991 18.9 16.7991ZM18.9 9.59906H5.1225C4.9575 9.59906 4.8225 9.73406 4.8225 9.89906L4.81875 11.6991C4.81875 11.8641 4.95375 11.9991 5.11875 11.9991H18.9C19.065 11.9991 19.2 11.8641 19.2 11.6991V9.89906C19.2 9.73406 19.065 9.59906 18.9 9.59906ZM22.8938 4.38656L12.69 0.137815C12.4707 0.046832 12.2356 0 11.9981 0C11.7607 0 11.5256 0.046832 11.3063 0.137815L1.10625 4.38656C0.43875 4.66781 0 5.32031 0 6.04781V18.8991C0 19.0641 0.135 19.1991 0.3 19.1991H3.3C3.465 19.1991 3.6 19.0641 3.6 18.8991V9.59906C3.6 8.93906 4.1475 8.39906 4.8225 8.39906H19.1775C19.8525 8.39906 20.4 8.93906 20.4 9.59906V18.8991C20.4 19.0641 20.535 19.1991 20.7 19.1991H23.7C23.865 19.1991 24 19.0641 24 18.8991V6.04781C24 5.32031 23.5613 4.66781 22.8938 4.38656Z" fill="#000000"/>
</svg>
