<svg width="32" height="32" viewBox="0 0 32 32" fill="none" xmlns="http://www.w3.org/2000/svg">
<path d="M22.4002 32C20.6136 32 19.26 31.6997 18.3394 31.0992C17.4189 30.4987 16.6392 29.8656 16.0002 29.2C15.4936 28.6667 15.0066 28.2 14.5394 27.8C14.0722 27.4 13.4797 27.2 12.7618 27.2C11.5618 27.2 10.2285 26.9931 8.76185 26.5792C7.29518 26.1653 5.91545 25.4859 4.62265 24.5408C3.32878 23.5936 2.24185 22.36 1.36185 20.84C0.481849 19.32 0.0285159 17.4533 0.00184928 15.24C-0.051484 10.7867 1.04878 7.13333 3.30265 4.28C5.55652 1.42667 8.70852 0 12.7586 0C14.652 0 16.252 0.2736 17.5586 0.8208C18.8653 1.368 19.9928 2.0544 20.941 2.88C21.8872 3.70667 22.6872 4.62027 23.341 5.6208C23.9949 6.62133 24.6146 7.58773 25.2002 8.52C25.5202 9.05333 25.8403 9.54027 26.1602 9.9808C26.4802 10.4213 26.8269 10.8277 27.2002 11.2C28.8002 12.8 30.0002 14.2 30.8002 15.4C31.6002 16.6 32.0002 18.4133 32.0002 20.84C32.0002 24.04 31.0066 26.7003 29.0194 28.8208C27.0322 30.9413 24.8258 32.0011 22.4002 32ZM22.4002 28.8C23.9202 28.8 25.3672 28.0464 26.741 26.5392C28.1149 25.032 28.8013 23.1323 28.8002 20.84C28.8002 19.08 28.54 17.7867 28.0194 16.96C27.4989 16.1333 26.4792 14.96 24.9602 13.44C24.4002 12.9067 23.9 12.3131 23.4594 11.6592C23.0189 11.0053 22.5725 10.3323 22.1202 9.64C21.0269 7.90667 19.8669 6.4 18.6402 5.12C17.4136 3.84 15.4536 3.2 12.7602 3.2C9.32025 3.2 6.85358 4.4336 5.36025 6.9008C3.86692 9.368 3.14692 12.1344 3.20025 15.2C3.22692 16.9867 3.61358 18.4533 4.36025 19.6C5.10692 20.7467 5.99385 21.6469 7.02105 22.3008C8.04718 22.9536 9.09358 23.4 10.1602 23.64C11.2269 23.88 12.0936 24 12.7602 24C14.1202 24 15.2136 24.3269 16.0402 24.9808C16.8669 25.6347 17.5469 26.2411 18.0802 26.8C18.6669 27.4133 19.2338 27.9003 19.781 28.2608C20.3282 28.6213 21.2013 28.8011 22.4002 28.8ZM16.0002 21.6C17.5469 21.6 18.8669 21.0533 19.9602 19.96C21.0536 18.8667 21.6002 17.5467 21.6002 16C21.6002 14.4533 21.0536 13.1333 19.9602 12.04C18.8669 10.9467 17.5469 10.4 16.0002 10.4C14.4536 10.4 13.1336 10.9467 12.0402 12.04C10.9469 13.1333 10.4002 14.4533 10.4002 16C10.4002 17.5467 10.9469 18.8667 12.0402 19.96C13.1336 21.0533 14.4536 21.6 16.0002 21.6Z" fill="#000000"/>
</svg>
