<svg width="32" height="32" viewBox="0 0 32 32" fill="none" xmlns="http://www.w3.org/2000/svg">
<path d="M23.3215 7.59178C23.3215 8.02089 23.1942 8.44037 22.9558 8.79716C22.7174 9.15395 22.3786 9.43204 21.9822 9.59625C21.5857 9.76046 21.1495 9.80343 20.7286 9.71971C20.3077 9.636 19.9211 9.42936 19.6177 9.12594C19.3143 8.82251 19.1077 8.43592 19.0239 8.01506C18.9402 7.59419 18.9832 7.15795 19.1474 6.76151C19.3116 6.36506 19.5897 6.02621 19.9465 5.78781C20.3033 5.54941 20.7228 5.42217 21.1519 5.42217C21.7273 5.42217 22.2791 5.65075 22.686 6.05763C23.0929 6.46451 23.3215 7.01637 23.3215 7.59178ZM31.9512 9.41562C31.7084 13.2125 30.5843 16.4031 28.6099 18.9077C25.7433 22.55 21.2278 24.5609 15.1773 24.8959L12.3378 31.0508C12.2082 31.3336 12.0001 31.5734 11.7384 31.7416C11.4767 31.9098 11.1722 31.9995 10.8611 32H10.7513C10.4228 31.9778 10.1089 31.8566 9.85077 31.6522C9.5927 31.4479 9.40266 31.1701 9.30575 30.8555L7.38564 24.6179L1.14798 22.6937C0.833085 22.5966 0.55507 22.4063 0.350717 22.1478C0.146364 21.8893 0.0253035 21.5749 0.00355051 21.2461C-0.0182024 20.9173 0.0603775 20.5896 0.228895 20.3065C0.397412 20.0233 0.647925 19.798 0.947293 19.6603L7.10359 16.8235C7.43581 10.7703 9.44949 6.25476 13.0917 3.38815C15.599 1.41379 18.787 0.291016 22.5838 0.0469339C24.8616 -0.0908707 27.1476 0.0751162 29.3815 0.540522C29.8903 0.650795 30.3566 0.905188 30.7248 1.27332C31.0929 1.64146 31.3473 2.10777 31.4576 2.61658C31.9232 4.85097 32.0891 7.13741 31.9512 9.41562ZM20.5457 20.6434C19.9962 20.3162 19.4892 19.9222 19.0365 19.4704C17.859 18.2958 17.1013 16.7661 16.8804 15.1177C15.232 14.8968 13.7022 14.139 12.5276 12.9616C12.0766 12.5089 11.6835 12.0019 11.3574 11.4523C10.7246 13.3038 10.3765 15.4594 10.3133 17.9192C10.3056 18.2238 10.2126 18.5202 10.0448 18.7745C9.87699 19.0289 9.64112 19.231 9.36406 19.3579L6.1693 20.8319L9.16608 21.7567C9.41949 21.8349 9.64993 21.9739 9.83735 22.1616C10.0248 22.3492 10.1635 22.5798 10.2414 22.8334L11.1635 25.8288L12.6402 22.63C12.7671 22.3529 12.9692 22.117 13.2235 21.9492C13.4779 21.7814 13.7743 21.6884 14.0789 21.6807C16.5342 21.6256 18.6898 21.2798 20.5457 20.6434ZM28.3482 3.64986C26.3535 3.26475 19.6901 2.33724 15.1041 5.94559C14.5386 6.39003 14.0206 6.8917 13.5582 7.44262C13.5371 8.0591 13.6478 8.67299 13.8827 9.24334C14.1176 9.81369 14.4714 10.3274 14.9205 10.7502C15.3697 11.173 15.9038 11.4953 16.4872 11.6954C17.0707 11.8955 17.6902 11.9689 18.3042 11.9107C18.543 11.8878 18.7839 11.918 19.0097 11.9991C19.2354 12.0802 19.4405 12.2102 19.6101 12.3799C19.7797 12.5495 19.9097 12.7545 19.9908 12.9803C20.072 13.206 20.1021 13.4469 20.0793 13.6857C20.021 14.3004 20.0946 14.9204 20.2951 15.5044C20.4956 16.0884 20.8184 16.6228 21.2419 17.072C21.6655 17.5213 22.1801 17.875 22.7513 18.1094C23.3224 18.3439 23.9371 18.4538 24.5541 18.4317C25.103 17.9715 25.6028 17.4557 26.0457 16.8927C29.6622 12.3121 28.7333 5.64591 28.3482 3.64986Z" fill="#000000"/>
</svg>
