<svg width="24" height="32" viewBox="0 0 24 32" fill="none" xmlns="http://www.w3.org/2000/svg">
<path d="M20.1455 0H3.12727V5.22182L0 12.3491V32H23.2727V12.3491L20.1455 5.22182V0ZM18.8102 9.41964L20.3636 12.96V29.0909H17.5273V12.9135L18.8102 9.41964ZM14.6182 14.1091V29.0909H2.90909V14.1091H14.6182ZM3.68 11.2L5.53164 6.98182H16.6065L15.0575 11.2H3.68ZM6.03636 4.07273V2.90909H17.2364V4.07273H6.03636ZM13.0909 17.4545H11.0167L8.72436 19.7585L6.42182 17.4545H4.36364V26.1818H7.27273V22.4204L8.73018 23.8778L10.1818 22.4189V26.1818H13.0909V17.4545Z" fill="#000000"/>
</svg>
