<svg width="16" height="32" viewBox="0 0 16 32" fill="none" xmlns="http://www.w3.org/2000/svg">
<path d="M15.96 14.4H0.04C0.180116 13.1562 0.681883 11.9808 1.4832 11.0192L3.2592 8.8912C3.73869 8.3153 4.00086 7.58938 4 6.84V1.6C4 1.17565 4.16857 0.768687 4.46863 0.468629C4.76869 0.168571 5.17565 0 5.6 0L10.4 0C10.8243 0 11.2313 0.168571 11.5314 0.468629C11.8314 0.768687 12 1.17565 12 1.6V6.8416C12.0003 7.59008 12.263 8.31477 12.7424 8.8896L14.5168 11.0192C15.3181 11.9808 15.8199 13.1562 15.96 14.4ZM16 25.6V28.8C16 29.6487 15.6629 30.4626 15.0627 31.0627C14.4626 31.6629 13.6487 32 12.8 32H3.2C2.35131 32 1.53737 31.6629 0.937258 31.0627C0.337142 30.4626 0 29.6487 0 28.8V25.6H16ZM3.2 17.6H12.8V22.4H3.2V17.6Z" fill="#000000"/>
</svg>
