<svg width="19" height="32" viewBox="0 0 19 32" fill="none" xmlns="http://www.w3.org/2000/svg">
<path d="M9.4703 32C8.78817 32 8.12054 31.9274 7.45292 31.7823C2.35867 30.6938 -0.877847 25.6721 0.210668 20.5779C0.573507 18.8653 1.41529 17.2978 2.61992 16.0351C2.85777 15.7843 2.99036 15.4519 2.99036 15.1062C2.99036 14.7606 2.85777 14.4282 2.61992 14.1774C-0.398899 10.4329 0.181642 4.94678 3.92613 1.92796C7.67062 -1.09085 13.1567 -0.500153 16.1756 3.24869C18.7445 6.42716 18.7445 10.9554 16.1756 14.1774C15.7547 14.7724 15.8127 15.5997 16.3207 16.1222C19.8765 19.9247 19.6878 25.9043 15.8708 29.4601C14.138 31.0901 11.8492 31.9983 9.4703 32ZM9.4703 2.97293C8.14957 2.97293 6.85787 3.42285 5.84192 4.26464C5.24611 4.73866 4.74994 5.32585 4.38198 5.9924C4.01402 6.65895 3.78153 7.3917 3.69789 8.14846C3.61426 8.90522 3.68113 9.67105 3.89466 10.4019C4.10819 11.1327 4.46416 11.814 4.94208 12.4067C6.33538 14.0613 6.23378 16.5141 4.72438 18.0815C2.25708 20.7085 2.40221 24.8448 5.02916 27.3121C7.65611 29.7794 11.7925 29.6488 14.2598 27.0073C15.3927 25.7974 16.023 24.2019 16.023 22.5444C16.023 20.8869 15.3927 19.2914 14.2598 18.0815C13.509 17.3159 13.0671 16.3001 13.0189 15.2288C12.9707 14.1575 13.3195 13.1061 13.9985 12.2761C14.9594 11.0746 15.4042 9.5409 15.2355 8.0117C15.0668 6.48251 14.2983 5.0827 13.0987 4.1195C12.373 3.56799 11.6038 3.17612 10.7475 2.97293H9.4703ZM9.4703 7.327C9.4703 8.12524 10.1234 8.77835 10.9217 8.77835C11.7199 8.77835 12.373 8.12524 12.373 7.327C12.373 6.52875 11.7199 5.87564 10.9217 5.87564C10.1234 5.87564 9.4703 6.52875 9.4703 7.327ZM12.373 26.1946C13.1713 26.1946 13.8244 25.5415 13.8244 24.7432C13.8244 23.945 13.1713 23.2919 12.373 23.2919C11.5748 23.2919 10.9217 23.945 10.9217 24.7432C10.9217 25.5415 11.5748 26.1946 12.373 26.1946ZM10.9217 21.8405C11.7199 21.8405 12.373 21.1874 12.373 20.3892C12.373 19.5909 11.7199 18.9378 10.9217 18.9378C10.1234 18.9378 9.4703 19.5909 9.4703 20.3892C9.4703 21.1874 10.1234 21.8405 10.9217 21.8405ZM8.01895 24.7432C8.81719 24.7432 9.4703 24.0901 9.4703 23.2919C9.4703 22.4936 8.81719 21.8405 8.01895 21.8405C7.22071 21.8405 6.5676 22.4936 6.5676 23.2919C6.5676 24.0901 7.22071 24.7432 8.01895 24.7432Z" fill="#000000"/>
</svg>
