<svg width="29" height="32" viewBox="0 0 29 32" fill="none" xmlns="http://www.w3.org/2000/svg">
<path fill-rule="evenodd" clip-rule="evenodd" d="M7.99335 4.66787C11.219 0.265362 17.1271 -1.24096 22.0711 1.08975C27.7534 3.77212 30.2147 10.5267 27.5897 16.224C26.9271 17.6621 26.5309 18.5228 26.2471 19.1391L26.2054 19.2297C25.5123 20.7357 25.4955 20.772 23.6303 24.8047C20.747 31.0382 13.3444 33.7488 7.11937 30.8177C0.0671859 27.5018 -2.21067 18.5694 2.4022 12.2864L7.99335 4.66787ZM21.1606 3.01993C17.1413 1.1254 12.3365 2.35068 9.71464 5.92946L4.12272 13.549C0.3059 18.7477 2.18951 26.1414 8.0275 28.8864C13.1773 31.3116 19.3053 29.0712 21.6932 23.9087C23.5422 19.9116 23.5736 19.8433 24.2496 18.3747L24.2668 18.3374L24.2678 18.3355L24.4004 18.0473C24.6771 17.4463 25.057 16.621 25.6514 15.3309C27.7856 10.699 25.7861 5.20339 21.1606 3.01993ZM19.5993 5.91783C19.5993 6.74289 18.9304 7.41173 18.1054 7.41173C17.2803 7.41173 16.6115 6.74289 16.6115 5.91783C16.6115 5.09277 17.2803 4.42393 18.1054 4.42393C18.9304 4.42393 19.5993 5.09277 19.5993 5.91783ZM16.5364 15.2867C17.6148 15.2867 18.4891 14.4125 18.4891 13.334C18.4891 12.2555 17.6148 11.3813 16.5364 11.3813C15.4579 11.3813 14.5836 12.2555 14.5836 13.334C14.5836 14.4125 15.4579 15.2867 16.5364 15.2867ZM9.25936 19.2134C9.25936 20.2035 8.45671 21.0061 7.46669 21.0061C6.47662 21.0061 5.67401 20.2035 5.67401 19.2134C5.67401 18.2233 6.47662 17.4208 7.46669 17.4208C8.45671 17.4208 9.25936 18.2233 9.25936 19.2134ZM10.1024 24.4101C10.1024 25.0936 9.5483 25.6479 8.86463 25.6479C8.18107 25.6479 7.62683 25.0936 7.62683 24.4101C7.62683 23.7265 8.18107 23.1723 8.86463 23.1723C9.5483 23.1723 10.1024 23.7265 10.1024 24.4101ZM24.1765 14.5717C24.1765 15.2554 23.6224 15.8095 22.9387 15.8095C22.2551 15.8095 21.7009 15.2554 21.7009 14.5717C21.7009 13.8881 22.2551 13.3339 22.9387 13.3339C23.6224 13.3339 24.1765 13.8881 24.1765 14.5717Z" fill="#000000"/>
</svg>
