<svg width="32" height="32" viewBox="0 0 32 32" fill="none" xmlns="http://www.w3.org/2000/svg">
<path fill-rule="evenodd" clip-rule="evenodd" d="M28.7729 3.59597C29.4324 3.94872 30.0152 4.47018 30.4293 5.099L30.46 5.11433C30.8741 5.75849 31.1348 6.47932 31.2115 7.23083C31.2882 7.98235 31.1808 8.74919 30.8894 9.43936C30.598 10.1295 30.1379 10.7583 29.5551 11.2338C28.9723 11.7092 28.2668 12.0313 27.5306 12.1847C26.7944 12.338 26.0123 12.292 25.2914 12.0773C25.0767 12.016 24.862 11.9239 24.6473 11.8319L23.543 12.9362C25.8742 17.9974 23.9724 25.3745 18.4665 30.8958C17.9604 31.3866 17.0401 32 15.4911 32C14.6322 32 13.574 31.8007 12.301 31.2945C10.0618 30.405 7.63857 28.7179 5.46072 26.5401C3.28287 24.3622 1.59581 21.939 0.706263 19.6998C-0.735412 16.1109 0.353512 14.2858 1.12036 13.519C4.2491 10.4056 8.03733 8.3351 11.8256 7.66027C14.0801 7.26151 16.1659 7.39954 17.991 8.01302L19.402 6.58668C19.31 6.3873 19.218 6.15725 19.1566 5.94253C18.9419 5.22169 18.8959 4.43951 19.0493 3.70333C19.1873 2.95182 19.5247 2.26166 20.0002 1.67885C20.4756 1.09605 21.1044 0.635938 21.7946 0.344536C22.4848 0.0684702 23.2516 -0.0542256 24.0031 0.0224593C24.7546 0.0991441 25.4755 0.359873 26.1043 0.773971C26.7331 1.18807 27.2546 1.77087 27.6073 2.43036C27.7453 2.69109 27.8527 2.96716 27.9447 3.25856C28.2208 3.33524 28.5122 3.45794 28.7729 3.59597ZM13.4053 28.4419C14.939 29.0553 15.9665 29.0093 16.2733 28.7026H16.2886C16.6107 28.3959 16.6414 27.3836 16.0279 25.8346C15.2917 23.9941 13.804 21.8776 11.9483 20.0219C10.0925 18.1661 7.97599 16.6784 6.13555 15.9422C5.27668 15.6048 4.57118 15.4668 4.06506 15.4668C3.68163 15.4668 3.40557 15.5435 3.26754 15.6815C2.94546 15.9882 2.91479 17.0005 3.52826 18.5495C4.26444 20.39 5.75212 22.5065 7.6079 24.3622C9.46367 26.218 11.5648 27.7057 13.4053 28.4419ZM18.9913 25.0558C19.0101 25.1154 19.0288 25.1751 19.0493 25.2364V25.2211C22.04 20.4973 22.4081 15.2827 19.5401 12.4147C17.8683 10.7583 15.3224 10.1295 12.347 10.651C10.4452 10.9884 8.54345 11.7706 6.73369 12.9055C6.80548 12.9316 6.87727 12.9549 6.95142 12.979C7.05153 13.0116 7.15594 13.0455 7.27048 13.0896C9.50968 13.9791 11.9329 15.6662 14.1108 17.844C16.2886 20.0219 17.9757 22.4451 18.8652 24.6843C18.9164 24.8172 18.9538 24.9365 18.9913 25.0558ZM27.5766 8.84122C27.776 8.68785 27.9294 8.47313 28.0214 8.24307L28.0367 8.25841C28.1441 8.02836 28.1748 7.76763 28.1441 7.52224C28.1288 7.26151 28.0367 7.03145 27.8987 6.81674C27.7607 6.60202 27.5613 6.43331 27.3466 6.31062C27.1319 6.18792 26.8711 6.12657 26.6257 6.12657C26.2116 6.12657 25.8129 5.9732 25.5368 5.6818C25.2607 5.3904 25.092 5.00697 25.092 4.59288C25.092 4.34748 25.0307 4.08676 24.908 3.87204C24.7853 3.65732 24.6166 3.45794 24.4019 3.31991C24.1872 3.18188 23.9418 3.10519 23.6964 3.07452C23.4356 3.04384 23.1903 3.08985 22.9602 3.18187C22.7301 3.2739 22.5154 3.42727 22.3621 3.62665C22.1934 3.82603 22.086 4.05608 22.04 4.30147C21.9786 4.54686 21.994 4.79226 22.0707 5.03765C22.1473 5.28304 22.27 5.49776 22.4541 5.6818C23.0522 6.27994 23.0522 7.24617 22.4541 7.84431L20.813 9.48537C21.1198 9.73076 21.4265 9.99149 21.7026 10.2676C21.7179 10.2982 21.7639 10.3442 21.7639 10.3442L23.359 8.74919C23.9264 8.16639 24.9387 8.16639 25.5215 8.74919C25.7055 8.93324 25.9202 9.05593 26.1656 9.13262C26.3957 9.19397 26.6564 9.2093 26.9018 9.16329C27.1472 9.11728 27.3773 8.99459 27.5766 8.84122ZM7.88362 20.3746C8.48176 19.7765 9.44799 19.7765 10.0461 20.3746H10.0615L11.5952 21.9083C12.1933 22.5064 12.1933 23.4727 11.5952 24.0708C11.2884 24.3622 10.905 24.5156 10.5062 24.5156C10.1075 24.5156 9.72405 24.3775 9.41731 24.0708L7.88362 22.5371C7.28547 21.939 7.28547 20.9727 7.88362 20.3746Z" fill="#000000"/>
</svg>
