<svg width="36" height="32" viewBox="0 0 36 32" fill="none" xmlns="http://www.w3.org/2000/svg">
<path d="M35.2985 13.4892C35.2985 9.38667 32.361 7.41744 30.2441 6.72821C29.8174 4.89026 28.3733 3.26564 26.4205 2.51077C25.0092 1.96923 23.5815 2.00205 22.3836 2.56C21.4154 0.984615 19.6759 0 17.6574 0C15.6554 0 13.9159 0.984615 12.9313 2.56C11.7169 2.00205 10.2892 1.96923 8.87795 2.51077C6.92513 3.26564 5.48103 4.89026 5.05436 6.72821C2.93744 7.40103 0 9.38667 0 13.4892C0 16.3774 2.13333 19.4626 6.62974 23.0236L7.82769 29.0297C8.17231 30.7528 9.69846 32 11.4544 32H23.8277C25.5836 32 27.1097 30.7528 27.4544 29.0297L28.6523 23.0236C33.1487 19.4462 35.2821 16.3774 35.2821 13.4892H35.2985ZM10.2564 28.5538L9.58359 25.2226C10.1415 25.6164 10.4862 25.8626 10.6995 26.0431C11.5692 26.7323 12.0779 27.2738 12.7508 28.16C12.9641 28.4554 13.1938 28.7836 13.6697 29.5221V29.5549H11.4379C10.8472 29.5549 10.3385 29.1446 10.2236 28.5703L10.2564 28.5538ZM23.8441 29.5385H21.5959L21.6944 29.3908C22.1046 28.7672 22.3179 28.439 22.5313 28.16C23.2041 27.2738 23.7128 26.7323 24.5826 26.0431C24.8123 25.8626 25.1405 25.6164 25.6985 25.2226L25.0256 28.5538C24.9108 29.1282 24.4021 29.5385 23.8113 29.5385H23.8441ZM24.8451 22.8103C23.8605 23.5159 23.3518 23.8605 23.04 24.1067C22.0226 24.9272 21.3497 25.6164 20.5621 26.6503C20.3323 26.9621 20.0862 27.3231 19.5446 28.1272L19.1672 28.7015C18.4944 29.719 16.8041 29.719 16.1149 28.7015L15.6882 28.0451C15.2123 27.3395 14.9662 26.9621 14.7364 26.6503C13.9487 25.6 13.2759 24.9108 12.2585 24.0903C11.9467 23.8277 11.4544 23.4831 10.4697 22.7938C5.16923 19.0359 2.47795 15.9015 2.47795 13.4728C2.47795 11.0441 3.92205 9.94462 5.05436 9.38667C5.5959 12.8492 7.86051 16.6236 8.91077 18.2646C9.28821 18.839 10.0431 19.0031 10.6174 18.6256C11.1918 18.2482 11.3559 17.4933 10.9785 16.919C8.66462 13.3744 7.33539 9.96103 7.40103 7.77846V7.74564C7.45026 6.54769 8.45128 5.31692 9.78051 4.80821C10.3221 4.59487 11.2903 4.38154 12.16 4.92308C12.1272 5.34974 12.1272 5.77641 12.1928 6.18667L13.5385 16.0985C13.6369 16.7713 14.2441 17.2472 14.9169 17.1487C15.5897 17.0503 16.0656 16.4431 15.9672 15.7703L14.6215 5.85846C14.5723 5.48103 14.5887 5.10359 14.6708 4.72615C14.6708 4.72615 14.6708 4.70974 14.6708 4.69333C15.081 3.0359 16.5251 2.44513 17.641 2.44513C18.7569 2.44513 20.201 3.0359 20.6113 4.69333C20.6113 4.69333 20.6113 4.70974 20.6113 4.72615C20.6933 5.08718 20.7097 5.46462 20.6605 5.85846L19.3149 15.7703C19.2164 16.4431 19.6923 17.0667 20.3651 17.1487C21.0379 17.2472 21.6615 16.7713 21.7436 16.0985L23.0892 6.18667C23.1549 5.76 23.1549 5.33333 23.1221 4.92308C23.9918 4.38154 24.96 4.59487 25.5015 4.80821C26.8308 5.31692 27.8318 6.54769 27.881 7.74564V7.77846C27.9467 9.94462 26.6174 13.3579 24.3036 16.919C23.9262 17.4933 24.0903 18.2482 24.6646 18.6256C25.239 19.0031 25.9938 18.839 26.3713 18.2646C27.4379 16.64 29.6862 12.8492 30.2277 9.38667C31.36 9.94462 32.8041 11.1097 32.8041 13.4728C32.8041 15.8359 30.1128 19.0359 24.8123 22.7938L24.8451 22.8103Z" fill="#000000"/>
</svg>
