<svg width="32" height="32" viewBox="0 0 32 32" fill="none" xmlns="http://www.w3.org/2000/svg">
<path d="M-0.000480652 9.61783C0.128067 10.484 0.315355 11.3332 0.670351 12.1407C1.61786 14.2973 3.15532 15.8807 5.33467 16.7673C6.57247 17.2715 7.41101 18.0756 7.90817 19.3115C8.70074 21.279 10.079 22.7397 11.9408 23.7422C12.306 23.939 12.6976 24.0863 13.0765 24.2584C13.9874 24.6723 14.6582 25.3256 15.0243 26.265C15.6355 27.8322 16.5685 29.1652 17.9136 30.1839C19.9916 31.7571 22.3225 32.2988 24.8884 31.8456C26.5816 31.5467 28.2238 31.0527 29.8642 30.5501C30.2124 30.4437 30.4287 30.2239 30.5359 29.8764C31.0825 28.1074 31.5984 26.3315 31.898 24.4985C32.4692 21.0039 30.57 17.2128 27.4048 15.5706C27.0362 15.379 26.6582 15.2018 26.2726 15.0468C25.314 14.6618 24.6432 13.9889 24.2303 13.0512C23.9247 12.3562 23.6148 11.6646 23.1772 11.036C22.1616 9.57694 20.8302 8.51398 19.1837 7.85558C18.0464 7.40075 17.2453 6.63249 16.8256 5.47327C16.7447 5.24926 16.6426 5.03037 16.5311 4.81913C15.0949 2.08591 12.8551 0.481232 9.79382 0.035773C9.75381 0.0298108 9.71464 0.0119243 9.67548 0C9.07191 0 8.46833 0 7.8656 0C6.1051 0.255521 4.39227 0.71035 2.69306 1.22565C1.48931 1.59105 1.58806 1.50502 1.22626 2.69405C0.709511 4.39327 0.255764 6.10781 0.000371933 7.87006V9.61868L-0.000480652 9.61783ZM8.7399 13.0384C6.36305 13.0461 4.40334 11.1228 4.38886 8.7695C4.37439 6.3727 6.32389 4.39497 8.70584 4.39156C11.0733 4.38815 13.022 6.32416 13.0296 8.68773C13.0381 11.0947 11.1287 13.0307 8.73904 13.0384H8.7399ZM18.9275 23.2618C18.9258 20.8625 20.848 18.9375 23.2453 18.9384C25.6298 18.9384 27.5734 20.8838 27.57 23.2661C27.5666 25.6237 25.612 27.5801 23.2555 27.5852C20.8736 27.5904 18.9283 25.6475 18.9275 23.2618ZM11.6744 15.999C11.6692 13.5946 13.5523 11.6944 15.953 11.6816C18.3707 11.6688 20.2785 13.5622 20.2845 15.9786C20.2896 18.3831 18.4065 20.2841 16.005 20.2961C13.5872 20.3088 11.6795 18.4154 11.6744 15.999Z" fill="#000000"/>
</svg>
