<svg width="32" height="32" viewBox="0 0 32 32" fill="none" xmlns="http://www.w3.org/2000/svg">
<path fill-rule="evenodd" clip-rule="evenodd" d="M24.5508 4.18717C25.3692 3.36883 26.4791 2.90909 27.6364 2.90909H29.0909V4.36364C29.0909 5.52094 28.6312 6.63085 27.8128 7.44919C26.9945 8.26753 25.8846 8.72727 24.7273 8.72727H23.2727V7.27273C23.2727 6.11542 23.7325 5.00551 24.5508 4.18717ZM22.4938 2.13013C21.841 2.78295 21.3251 3.5471 20.9646 4.37795C20.8827 4.28585 20.796 4.19381 20.7085 4.10603L18.4831 1.88057C18.2103 1.60779 17.8403 1.45455 17.4545 1.45455C17.0688 1.45455 16.6988 1.60779 16.426 1.88057L14.1986 4.10805C13.2709 5.0394 12.652 6.22102 12.4078 7.49376C11.8462 7.14183 11.0964 7.21016 10.6078 7.69875L8.38037 9.92623C7.45267 10.8576 6.83384 12.0392 6.5896 13.3119C6.02797 12.96 5.27826 13.0283 4.78966 13.5169L2.56219 15.7444C1.34024 16.9712 0.654164 18.6321 0.654164 20.3636C0.654164 22.0951 1.34226 23.7581 2.56421 24.9849L3.76114 26.1818L0.426027 29.5169C-0.142009 30.085 -0.142009 31.0059 0.426027 31.574C0.994062 32.142 1.91503 32.142 2.48306 31.574L5.81805 28.239L7.01679 29.4377C8.24355 30.6597 9.90451 31.3457 11.636 31.3457C13.3675 31.3457 15.0305 30.6576 16.2573 29.4357L18.4827 27.2102C18.9713 26.7217 19.0396 25.9719 18.6877 25.4103C19.9604 25.1661 21.1441 24.5452 22.0754 23.6175L24.3009 21.3921C24.7895 20.9035 24.8578 20.1538 24.5059 19.5921C25.7786 19.3479 26.9623 18.727 27.8936 17.7993L30.1191 15.5739C30.3919 15.3011 30.5451 14.9311 30.5451 14.5454C30.5451 14.1596 30.3919 13.7896 30.1191 13.5168L27.8916 11.2894C27.8039 11.202 27.7139 11.1173 27.6219 11.0355C28.4528 10.675 29.217 10.1591 29.8699 9.50623C31.2338 8.14233 32 6.29248 32 4.36364V1.45455C32 0.651222 31.3488 0 30.5455 0H27.6364C25.7075 0 23.8577 0.766232 22.4938 2.13013ZM19.5114 14.5456L20.7105 13.3465L20.7348 13.3223C21.4133 12.6616 22.3242 12.2904 23.2724 12.2904C24.2339 12.2904 25.1572 12.6722 25.8386 13.3505L27.0335 14.5454L25.8376 15.7412C25.1562 16.4195 24.2339 16.8003 23.2724 16.8003C22.3108 16.8003 21.3876 16.4186 20.7061 15.7403L19.5114 14.5456ZM13.6933 20.3638L14.8924 19.1647L14.9173 19.1397C15.5959 18.479 16.506 18.1086 17.4542 18.1086C18.4158 18.1086 19.3382 18.4895 20.0196 19.1678L21.2153 20.3635L20.0196 21.5593C19.3382 22.2376 18.4158 22.6185 17.4542 22.6185C16.4927 22.6185 15.5694 22.2367 14.888 21.5585L13.6933 20.3638ZM7.87509 26.182L9.07418 24.9829L9.09923 24.9578C9.77777 24.2971 10.6879 23.9268 11.636 23.9268C12.5974 23.9268 13.5197 24.3075 14.2011 24.9857L15.3972 26.1817L14.2011 27.3778C13.5197 28.0559 12.5974 28.4367 11.636 28.4367C10.6746 28.4367 9.75121 28.0549 9.06978 27.3766L7.87509 26.182ZM18.6716 11.2711C19.3366 10.5918 19.7095 9.67872 19.7095 8.72727C19.7095 7.76578 19.3287 6.84345 18.6504 6.16201L17.4545 4.96613L16.2596 6.16104C15.5814 6.84248 15.1996 7.76578 15.1996 8.72727C15.1996 9.68876 15.5804 10.6111 16.2587 11.2925L17.4543 12.4882L18.6511 11.2914C18.6579 11.2846 18.6647 11.2779 18.6716 11.2711ZM12.8529 17.0898C13.5176 16.4106 13.8913 15.4967 13.8913 14.5455C13.8913 13.5839 13.5104 12.6615 12.8321 11.98L11.6364 10.7843L10.4414 11.9792C9.76319 12.6607 9.38144 13.584 9.38144 14.5455C9.38144 15.507 9.76229 16.4294 10.4406 17.1109L11.6361 18.3064L12.8329 17.1096C12.8396 17.103 12.8462 17.0964 12.8529 17.0898ZM7.03474 22.9079C7.6995 22.2287 8.07311 21.3149 8.07311 20.3636C8.07311 19.4021 7.69226 18.4797 7.01391 17.7982L5.81818 16.6025L4.62327 17.7974C3.94497 18.4789 3.56326 19.4021 3.56326 20.3636C3.56326 21.3252 3.94408 22.2475 4.62238 22.929L5.81796 24.1246L7.01476 22.9278C7.02141 22.9211 7.02807 22.9145 7.03474 22.9079Z" fill="#000000"/>
</svg>
